HIERARCHY
ROOT Hips
{
	OFFSET 0.00000 0.00000 0.00000
	CHANNELS 6 Xposition Yposition Zposition Zrotation Yrotation Xrotation 
	JOINT LHipJoint
	{
		OFFSET 0 0 0
		CHANNELS 3 Zrotation Yrotation Xrotation
		JOINT LeftUpLeg
		{
			OFFSET 1.38691 -1.89057 0.78360
			CHANNELS 3 Zrotation Yrotation Xrotation
			JOINT LeftLeg
			{
				OFFSET 2.59731 -7.13606 0.00000
				CHANNELS 3 Zrotation Yrotation Xrotation
				JOINT LeftFoot
				{
					OFFSET 2.70078 -7.42033 0.00000
					CHANNELS 3 Zrotation Yrotation Xrotation
					JOINT LeftToeBase
					{
						OFFSET 0.16751 -0.46024 2.68862
						CHANNELS 3 Zrotation Yrotation Xrotation
						End Site
						{
							OFFSET 0.00000 -0.00000 1.37057
						}
					}
				}
			}
		}
	}
	JOINT RHipJoint
	{
		OFFSET 0 0 0
		CHANNELS 3 Zrotation Yrotation Xrotation
		JOINT RightUpLeg
		{
			OFFSET -1.38190 -1.89056 0.78359
			CHANNELS 3 Zrotation Yrotation Xrotation
			JOINT RightLeg
			{
				OFFSET -2.57785 -7.08258 0.00000
				CHANNELS 3 Zrotation Yrotation Xrotation
				JOINT RightFoot
				{
					OFFSET -2.77908 -7.63547 0.00000
					CHANNELS 3 Zrotation Yrotation Xrotation
					JOINT RightToeBase
					{
						OFFSET -0.17921 -0.49237 2.62360
						CHANNELS 3 Zrotation Yrotation Xrotation
						End Site
						{
							OFFSET -0.00000 -0.00000 1.34085
						}
					}
				}
			}
		}
	}
	JOINT LowerBack
	{
		OFFSET 0 0 0
		CHANNELS 3 Zrotation Yrotation Xrotation
		JOINT Spine
		{
			OFFSET -0.10749 2.04110 -0.22549
			CHANNELS 3 Zrotation Yrotation Xrotation
			JOINT Spine1
			{
				OFFSET 0.01213 2.05840 0.00691
				CHANNELS 3 Zrotation Yrotation Xrotation
				JOINT Neck
				{
					OFFSET 0 0 0
					CHANNELS 3 Zrotation Yrotation Xrotation
					JOINT Neck1
					{
						OFFSET 0.06585 1.81215 0.35449
						CHANNELS 3 Zrotation Yrotation Xrotation
						JOINT Head
						{
							OFFSET -0.04315 1.87555 -0.27307
							CHANNELS 3 Zrotation Yrotation Xrotation
							End Site
							{
								OFFSET -0.01775 1.89740 -0.13294
							}
						}
					}
				}
				JOINT LeftShoulder
				{
					OFFSET 0 0 0
					CHANNELS 3 Zrotation Yrotation Xrotation
					JOINT LeftArm
					{
						OFFSET 2.98012 1.63606 0.28888
						CHANNELS 3 Zrotation Yrotation Xrotation
						JOINT LeftForeArm
						{
							OFFSET 5.59864 -0.00000 -0.00000
							CHANNELS 3 Zrotation Yrotation Xrotation
							JOINT LeftHand
							{
								OFFSET 3.59542 -0.00000 -0.00000
								CHANNELS 3 Zrotation Yrotation Xrotation
								JOINT LeftFingerBase
								{
									OFFSET 0 0 0
									CHANNELS 3 Zrotation Yrotation Xrotation
									JOINT LeftHandIndex1
									{
										OFFSET 0.57201 -0.00000 -0.00000
										CHANNELS 3 Zrotation Yrotation Xrotation
										End Site
										{
											OFFSET 0.46117 -0.00000 -0.00000
										}
									}
								}
								JOINT LThumb
								{
									OFFSET 0 0 0
									CHANNELS 3 Zrotation Yrotation Xrotation
									End Site
									{
										OFFSET 0.46821 -0.00000 0.46821
									}
								}
							}
						}
					}
				}
				JOINT RightShoulder
				{
					OFFSET 0 0 0
					CHANNELS 3 Zrotation Yrotation Xrotation
					JOINT RightArm
					{
						OFFSET -3.08694 1.53706 0.36335
						CHANNELS 3 Zrotation Yrotation Xrotation
						JOINT RightForeArm
						{
							OFFSET -5.80940 -0.00000 -0.00000
							CHANNELS 3 Zrotation Yrotation Xrotation
							JOINT RightHand
							{
								OFFSET -3.66953 -0.00000 -0.00000
								CHANNELS 3 Zrotation Yrotation Xrotation
								JOINT RightFingerBase
								{
									OFFSET 0 0 0
									CHANNELS 3 Zrotation Yrotation Xrotation
									JOINT RightHandIndex1
									{
										OFFSET -0.57843 -0.00000 -0.00000
										CHANNELS 3 Zrotation Yrotation Xrotation
										End Site
										{
											OFFSET -0.46635 -0.00000 -0.00000
										}
									}
								}
								JOINT RThumb
								{
									OFFSET 0 0 0
									CHANNELS 3 Zrotation Yrotation Xrotation
									End Site
									{
										OFFSET -0.47347 -0.00000 0.47347
									}
								}
							}
						}
					}
				}
			}
		}
	}
}
MOTION
Frames: 6
Frame Time: .0083333
5.5201 19.4815 -21.9038 0 0 0 0 0 0 -21 0 0 0 0 0 0 0 0 0 0 0 0 0 0 21 0 0 0 0 0 0 0 0 0 0 0 0 0 0 0 0 0 0 0 0 0 0 -16 0 0 21 0 0 11 0 0 0 -8 0 0 0 0 0 0 0 0 0 0 0 0 0 0 0 0 0 0 0 0 8 0 0 0 0 0 0 0 0 0 0 0 0 0 0 0 0 0
5.5201 19.4815 -21.9038 -1.9261 63.5991 0.2321 0.0000 0.0000 0.0000 -17.2021 -3.0805 -8.3960 4.7920 13.1457 39.9164 7.5541 -5.8187 -51.6257 0.8563 -5.9012 -16.4980 0.0000 0.0000 0.0000 18.5541 4.7710 -23.3441 -6.2242 -14.6421 45.8750 -4.5421 3.5430 -39.7145 -1.6256 8.0383 -22.8305 -5.9514 -2.3233 10.1581 -1.2853 -3.8154 0.3554 2.5315 -1.7411 -5.0248 -2.9537 -9.4658 -15.8973 6.4868 -15.4509 38.1395 0.4757 -5.5924 17.5575 0.0000 0.0000 0.0000 -85.8510 -0.9013 48.0442 31.5247 -42.1649 -12.4206 -0.0000 0.0000 -36.2455 34.1699 21.6361 14.0520 -7.1250 0.0000 -0.0000 5.9189 55.4961 1.5287 0.0000 0.0000 0.0000 79.2409 -7.2651 55.2041 -26.7042 37.8956 -9.3169 0.0000 -0.0000 -0.0821 -9.5336 2.2927 -0.3849 7.1250 -0.0000 -0.0000 13.0479 -27.5746 5.6626
5.5234 19.4798 -21.6448 -1.7398 62.8552 0.4005 0.0000 0.0000 0.0000 -17.2865 -2.6769 -8.5247 4.8412 13.2027 40.1321 7.5964 -5.4801 -51.8293 0.8995 -6.0445 -16.9137 0.0000 0.0000 0.0000 18.4895 5.2585 -23.4834 -6.3249 -14.7360 46.2723 -4.4071 9.7242 -38.2855 -0.4042 4.0817 -11.3066 -6.1726 -2.2140 10.0642 -1.2660 -3.6874 0.3582 2.6529 -1.6749 -4.9651 -3.0925 -9.4198 -15.9651 6.6515 -15.3964 37.9786 0.5765 -5.5767 17.5198 0.0000 -0.0000 0.0000 -85.7340 -0.6153 47.8544 31.4601 -42.1125 -12.3772 -0.0000 0.0000 -36.1325 34.2272 21.6220 14.0726 -7.1250 0.0000 -0.0000 5.9850 55.4930 1.5455 0.0000 -0.0000 0.0000 79.6188 -7.0788 54.6391 -26.2263 37.4313 -9.0249 0.0000 -0.0000 -0.0465 -8.9494 1.9778 -0.3114 7.1250 -0.0000 -0.0000 13.5264 -27.8821 5.7800
5.5310 19.4786 -21.4021 -1.5211 62.3482 0.6853 0.0000 0.0000 0.0000 -17.4564 -2.5820 -8.7397 4.9056 13.2767 40.4133 7.6315 -5.6492 -51.9347 0.8231 -5.7885 -16.1719 0.0000 0.0000 0.0000 18.3315 5.3943 -23.8902 -6.4380 -14.8398 46.7153 -4.0543 12.0263 -36.5593 -0.1738 2.6856 -7.4045 -6.1182 -2.1936 9.9352 -1.3841 -3.6500 0.3536 2.4880 -1.6605 -4.9121 -2.9648 -9.3878 -16.0531 6.7855 -15.4384 37.7995 0.5997 -5.5666 17.4516 -0.0000 0.0000 0.0000 -85.4185 -0.3829 47.7945 31.4180 -42.0783 -12.3491 -0.0000 0.0000 -36.1561 34.0688 21.5707 13.9620 -7.1250 0.0000 -0.0000 5.8135 55.3984 1.4876 -0.0000 0.0000 0.0000 80.2770 -6.9065 53.7123 -25.7112 36.9221 -8.7136 0.0000 0.0000 0.1134 -8.9621 1.1158 -0.1760 7.1250 -0.0000 -0.0000 13.6244 -28.7305 5.5419
5.5328 19.4766 -21.1618 -1.3871 61.9025 0.7395 0.0000 0.0000 0.0000 -17.5681 -2.4907 -8.8004 4.9713 13.3514 40.6984 7.6431 -5.6082 -51.9834 0.8120 -5.7504 -16.0620 0.0000 0.0000 0.0000 18.2388 5.3884 -24.1832 -6.5468 -14.9381 47.1387 -3.9736 11.8293 -36.1771 -0.1971 2.8588 -7.8860 -6.0704 -2.2399 10.0597 -1.4602 -3.7171 0.3812 2.3963 -1.6938 -4.9553 -2.8659 -9.2997 -16.1493 6.8944 -15.3749 37.6207 0.6377 -5.5222 17.3770 -0.0000 -0.0000 0.0000 -85.1823 -0.1739 47.5413 31.3453 -42.0190 -12.3004 -0.0000 0.0000 -36.1459 34.0506 21.5263 13.9266 -7.1250 0.0000 -0.0000 5.7985 55.3437 1.4760 -0.0000 -0.0000 0.0000 80.8151 -6.6913 52.9230 -25.2553 36.4638 -8.4412 0.0000 -0.0000 -0.1096 -8.7900 0.8189 -0.1266 7.1250 -0.0000 -0.0000 13.7944 -29.0202 5.5169
5.5367 19.4787 -20.9160 -1.3397 61.4089 0.7436 0.0000 0.0000 0.0000 -17.5953 -2.2908 -8.9138 5.0358 13.4240 40.9770 7.6235 -5.1706 -51.9742 0.8529 -5.8898 -16.4652 0.0000 0.0000 0.0000 18.2239 5.4190 -24.4827 -6.6574 -15.0365 47.5664 -3.8990 11.4810 -35.8232 -0.2185 3.0095 -8.3051 -6.0909 -2.2774 10.0604 -1.4577 -3.7658 0.4377 2.4149 -1.7203 -4.8907 -2.8738 -9.1980 -16.2355 7.0058 -15.2514 37.4141 0.7065 -5.4706 17.2917 0.0000 0.0000 0.0000 -85.0409 -0.0002 47.2894 31.2864 -41.9708 -12.2609 -0.0000 0.0000 -36.1276 33.7835 21.3894 13.7120 -7.1250 0.0000 -0.0000 5.5173 55.1276 1.3751 0.0000 0.0000 0.0000 81.3494 -6.4326 51.8741 -24.7578 35.9554 -8.1473 0.0000 -0.0000 -0.2388 -9.4844 -0.1269 0.0212 7.1250 -0.0000 -0.0000 13.3876 -29.9624 5.0364
